<svg width="24" height="24" viewBox="0 0 24 24" fill="none" xmlns="http://www.w3.org/2000/svg">
<path d="M18.1742 7.89892V5.0417C18.9231 4.68945 19.4478 3.93496 19.4478 3.05922V2.99322C19.4478 1.78473 18.4549 0.796244 17.2415 0.796244H17.1752C15.9615 0.796244 14.9686 1.78498 14.9686 2.99322V3.05922C14.9686 3.93496 15.4936 4.68945 16.2425 5.0417V7.89892C15.1273 8.07042 14.1084 8.52841 13.2676 9.20241L5.38923 3.09972C5.44095 2.90097 5.47735 2.69622 5.4776 2.48148C5.47961 1.11274 4.36664 0.00175205 2.99207 2.06965e-06C1.61749 -0.00174791 0.50176 1.10649 0.500002 2.47523C0.498245 3.84396 1.61121 4.95495 2.98579 4.9567C3.43369 4.9572 3.84845 4.83045 4.21174 4.6247L11.9618 10.6279C11.3028 11.6186 10.9167 12.8051 10.9167 14.0826C10.9167 15.4201 11.341 16.6571 12.058 17.6746L9.701 20.0215C9.51472 19.9658 9.32115 19.927 9.11653 19.927C7.98699 19.927 7.07136 20.8388 7.07136 21.9635C7.07136 23.0883 7.98699 24 9.11653 24C10.2461 24 11.1617 23.0883 11.1617 21.9635C11.1617 21.7598 11.1225 21.5673 11.0668 21.3818L13.3982 19.0603C14.4564 19.8648 15.7743 20.3478 17.2083 20.3478C20.6831 20.3478 23.5 17.5428 23.5 14.0829C23.5 10.9506 21.1892 8.36266 18.1742 7.89892ZM17.2086 17.2946C15.427 17.2946 13.9827 15.8566 13.9827 14.0826C13.9827 12.3086 15.427 10.8706 17.2086 10.8706C18.9901 10.8706 20.4343 12.3086 20.4343 14.0826C20.4343 15.8566 18.9899 17.2946 17.2086 17.2946Z" fill="#FF4800"/>
</svg>
